<svg xmlns="http://www.w3.org/2000/svg" id="svg16" viewBox="0 0 472 86" height="325.039" width="1783.937"><g transform="translate(-16.03 -95.794)" id="layer4"><g transform="matrix(.26458 0 0 .26458 7.646 91.536)" id="g59"><path class="st0" id="polygon27" fill="#fff" d="M309.5 249.3L257 260.5l45.8 42.5 54.1-24.2z"/><path class="st0" id="polygon29" fill="#fff" d="M320.1 245.1l48-24.8 47.3 32.3-47.3 21.4z"/><path class="st0" id="polygon31" fill="#fff" d="M379 216.2l40.6-11.3 48.9 23.8-42.7 19.5z"/><path class="st0" id="polygon33" fill="#fff" d="M325.5 186.8l42.3-22.4 42.6 28.1-41 11.4z"/><path class="st0" id="polygon35" fill="#fff" d="M269.5 207.9l46.2-10.3 42.5 17.4-47.7 24.5z"/><path class="st0" id="polygon37" fill="#fff" d="M206.6 217.4l52.1-6.6 41 32.6-52.3 11.3z"/><path class="st0" id="polygon39" fill="#fff" d="M291.4 106.7l41.4-19.1 36 43.3-41.2 20.8z"/><path class="st0" id="polygon41" fill="#fff" d="M223.7 155.4l47-20.2 37.1 47.7-46.6 10.4z"/><path class="st0" id="polygon43" fill="#fff" d="M164.5 179.2l50.6-11.9 35.8 32.5-51 6z"/><path class="st0" id="polygon45" fill="#fff" d="M95.9 176.6l56.6-16.2 34 26-56.6 28.6z"/><path class="st0" id="polygon47" fill="#fff" d="M41.7 102.4l56.4-5 30.6 20.2L71 131.9z"/><path class="st0" id="polygon49" fill="#fff" d="M138.1 126.5l47.4-11.8 31.6 17.2-48.9 15z"/><path class="st0" id="polygon51" fill="#fff" d="M211.5 103.8l39.4-22.6 31.4 21-40.8 17.5z"/><path class="st0" id="polygon53" fill="#fff" d="M305.4 32.7l36.2-8.4 33.5 11.5-36.6 16.4z"/><path class="st0" id="polygon55" fill="#fff" d="M125.3 240.7l59.7-29.9 39.8 38-60.6 34.6z"/><path class="st0" id="polygon57" fill="#fff" d="M186.5 298.8l58.6-33.5 45.8 42.6-60.1 27.3z"/></g><g transform="matrix(.61614 0 0 .61614 137.186 120.108)" id="g108"><path class="st0" d="M277.1 76.4c-2.3 0-4.2-.7-5.5-2-1.4-1.3-2.1-3.4-2.1-6.4-2.5 3-5.3 5.1-8.6 6.4-3.3 1.3-6.8 2-10.6 2-2.5 0-4.8-.3-7-.8s-4.1-1.4-5.7-2.6c-1.7-1.2-3-2.8-3.9-4.7-.9-1.9-1.4-4.3-1.4-7 0-3.1.5-5.6 1.6-7.6s2.4-3.6 4.2-4.8c1.7-1.2 3.7-2.2 5.9-2.8 2.2-.6 4.5-1.2 6.8-1.6 2.5-.5 4.8-.9 7-1.1 2.2-.2 4.2-.6 5.8-1.1 1.7-.5 3-1.1 4-2 1-.9 1.5-2.2 1.5-3.8 0-2-.4-3.5-1.1-4.7-.7-1.2-1.7-2.1-2.8-2.7-1.2-.6-2.5-1.1-3.9-1.3-1.4-.2-2.9-.3-4.3-.3-3.8 0-7 .7-9.5 2.2-2.5 1.4-3.9 4.2-4.1 8.2h-9c.1-3.4.8-6.2 2.1-8.5s2.9-4.2 5.1-5.6c2.1-1.4 4.5-2.5 7.3-3.1 2.7-.6 5.6-.9 8.6-.9 2.5 0 4.9.2 7.3.5 2.4.4 4.6 1.1 6.6 2.2s3.5 2.6 4.7 4.6c1.2 2 1.8 4.5 1.8 7.7v28c0 2.1.1 3.7.4 4.6.2 1 1.1 1.5 2.5 1.5.8 0 1.7-.2 2.7-.5v7c-1.5.5-3.6 1-6.4 1zM264.6 49c-1.8.4-3.7.7-5.7.9-2 .2-4 .5-6.1.8-2 .3-3.9.8-5.5 1.5s-2.9 1.7-4 3c-1 1.3-1.5 3.1-1.5 5.3 0 1.5.3 2.7.9 3.7.6 1 1.4 1.8 2.3 2.5.9.6 2.1 1.1 3.4 1.4 1.3.3 2.6.4 4 .4 3 0 5.5-.4 7.6-1.2 2.1-.8 3.8-1.8 5.2-3.1 1.3-1.2 2.3-2.6 3-4 .6-1.4.9-2.8.9-4.1v-9.2c-1.2 1.1-2.7 1.7-4.5 2.1z" id="path88" fill="#fff"/><path class="st0" d="M300 20.8v11.5h.2c2.2-4.4 4.8-7.7 8-9.8 3.2-2.1 7.2-3.1 12-3V29c-3.6 0-6.6.5-9.2 1.5-2.5 1-4.6 2.4-6.1 4.3s-2.7 4.2-3.4 6.9c-.7 2.7-1.1 5.8-1.1 9.3v24.2h-9V20.8z" id="path90" fill="#fff"/><path class="st0" d="M335.4 20.8v8h.2c4.1-6.2 9.9-9.3 17.6-9.3 3.4 0 6.4.7 9.2 2.1 2.7 1.4 4.7 3.8 5.8 7.2 1.8-3 4.2-5.2 7.2-6.9 3-1.6 6.3-2.4 9.9-2.4 2.7 0 5.2.3 7.4.9 2.2.6 4.1 1.5 5.7 2.8 1.6 1.3 2.8 2.9 3.7 4.9.9 2 1.3 4.4 1.3 7.2v39.9h-9V39.5c0-1.7-.1-3.3-.4-4.7-.3-1.5-.8-2.8-1.6-3.8-.8-1.1-1.8-1.9-3.2-2.6-1.4-.6-3.1-.9-5.3-.9-4.4 0-7.9 1.3-10.4 3.8s-3.8 5.9-3.8 10.1v33.9h-9V39.5c0-1.8-.2-3.4-.5-4.8-.3-1.5-.9-2.8-1.6-3.8-.8-1.1-1.8-1.9-3.1-2.5-1.3-.6-3-.9-5-.9-2.6 0-4.8.5-6.7 1.6-1.9 1.1-3.4 2.3-4.5 3.8-1.2 1.5-2 3-2.5 4.6-.5 1.6-.8 2.9-.8 4v33.9h-9V20.8z" id="path92" fill="#fff"/><path class="st0" d="M425.6 0l43.8 63.7h.2V0h7.2v75.2h-8L425 11.6h-.2v63.7h-7.2V0z" id="path94" fill="#fff"/><path class="st0" d="M495.5 57.3c.7 2.6 1.7 4.9 3.2 6.9 1.5 2 3.3 3.7 5.6 5.1 2.2 1.3 5 2 8.1 2 4.8 0 8.6-1.3 11.4-3.8 2.7-2.5 4.6-5.9 5.7-10.1h6.6c-1.4 6.2-4 11-7.7 14.3-3.8 3.4-9.1 5.1-16 5.1-4.3 0-8-.8-11.1-2.3-3.1-1.5-5.7-3.6-7.6-6.2-2-2.6-3.4-5.7-4.4-9.2-.9-3.5-1.4-7.1-1.4-11 0-3.6.5-7.1 1.4-10.5.9-3.4 2.4-6.5 4.4-9.2 2-2.7 4.5-4.9 7.6-6.5 3.1-1.6 6.8-2.5 11.1-2.5 4.4 0 8.1.9 11.2 2.6 3.1 1.8 5.6 4.1 7.5 6.9 1.9 2.8 3.3 6.1 4.2 9.8.8 3.7 1.2 7.4 1.1 11.2h-41.8c-.1 2.3.3 4.8.9 7.4zM528.4 37c-.8-2.3-1.9-4.4-3.4-6.2-1.5-1.8-3.3-3.2-5.4-4.3-2.1-1.1-4.5-1.6-7.2-1.6s-5.2.5-7.3 1.6c-2.1 1.1-3.9 2.5-5.4 4.3-1.5 1.8-2.7 3.9-3.5 6.2-.9 2.4-1.5 4.8-1.7 7.2h35.2c0-2.5-.5-4.9-1.3-7.2z" id="path96" fill="#fff"/><path class="st0" d="M566.9 20.9v5.6h-11.1v36.7c0 2.2.3 3.9.9 5.1.6 1.2 2.1 1.9 4.5 2.1 1.9 0 3.8-.1 5.7-.3v5.6c-1 0-2 0-2.9.1-1 .1-2 .1-3 .1-4.4 0-7.5-.9-9.3-2.6-1.8-1.7-2.6-4.9-2.5-9.5V26.5h-9.5v-5.6h9.5V4.5h6.6v16.3h11.1z" id="path98" fill="#fff"/><path class="st1" d="M20.8 32c2 .1 3.9-.1 5.9-.4 2-.4 3.7-1 5.3-1.8 1.5-.9 2.8-2.1 3.7-3.6.9-1.5 1.4-3.4 1.4-5.7 0-3.2-1.1-5.7-3.2-7.6C31.7 11 29 10 25.6 10c-2.1 0-3.9.4-5.5 1.3-1.5.8-2.8 2-3.8 3.4s-1.8 3.1-2.3 4.8c-.5 1.8-.7 3.6-.6 5.5h-12c.1-3.6.8-6.9 2-10 1.2-3.1 2.8-5.7 4.9-8 2.1-2.2 4.6-4 7.5-5.3 3-1.3 6.3-1.9 10-1.9 2.9 0 5.7.4 8.5 1.3 2.8.8 5.3 2.1 7.5 3.7s4 3.7 5.3 6.2c1.3 2.5 2 5.4 2 8.6 0 3.7-.8 7-2.5 9.7-1.7 2.8-4.3 4.8-7.9 6.1v.2c4.2.8 7.5 2.9 9.9 6.3 2.4 3.3 3.5 7.4 3.5 12.2 0 3.5-.7 6.7-2.1 9.4-1.4 2.8-3.3 5.1-5.7 7.1-2.4 1.9-5.2 3.4-8.3 4.5-3.2 1.1-6.5 1.6-10 1.6-4.3 0-8-.6-11.2-1.8-3.2-1.2-5.9-3-8-5.2-2.1-2.2-3.8-5-4.9-8.1C.7 58.4.1 54.9 0 51h12c-.1 4.5 1 8.2 3.3 11.2 2.4 3 5.9 4.5 10.6 4.5 4 0 7.4-1.1 10.1-3.4 2.7-2.3 4.1-5.5 4.1-9.7 0-2.9-.6-5.2-1.7-6.8-1.1-1.7-2.6-3-4.4-3.8-1.8-.9-3.9-1.4-6.2-1.6-2.3-.2-4.6-.3-7-.2z" id="path100" fill="#e7ad00"/><path class="st1" d="M97 20.1c-.3-3-1.4-5.5-3.2-7.3-1.9-1.9-4.4-2.8-7.5-2.8-2.2 0-4.1.4-5.6 1.2-1.6.8-2.9 1.9-4 3.2-1.1 1.3-2 2.9-2.6 4.6-.7 1.7-1.2 3.5-1.6 5.4-.4 1.9-.7 3.8-.9 5.6-.2 1.9-.3 3.6-.5 5.2l.2.2c1.6-3 3.8-5.1 6.7-6.6 2.8-1.4 5.9-2.2 9.2-2.2 3.7 0 6.9.6 9.8 1.9 2.9 1.3 5.3 3 7.3 5.2s3.5 4.8 4.6 7.9c1.1 3.1 1.6 6.3 1.6 9.8 0 3.6-.6 6.9-1.7 10-1.2 3.1-2.8 5.7-5 8S99 73.5 96 74.7c-3 1.3-6.4 1.9-10 1.9-5.4 0-9.9-1-13.3-3-3.5-2-6.2-4.7-8.2-8.2-2-3.5-3.4-7.6-4.2-12.2-.8-4.7-1.2-9.7-1.2-15.1 0-4.4.5-8.9 1.4-13.4.9-4.5 2.5-8.6 4.7-12.3 2.2-3.7 5-6.7 8.6-9C77.2 1.2 81.5 0 86.7 0c2.9 0 5.7.5 8.3 1.5 2.6 1 4.9 2.4 6.9 4.1 2 1.8 3.6 3.9 4.9 6.3 1.3 2.5 2 5.2 2.1 8.2zM85.4 66.7c2.2 0 4.1-.4 5.7-1.3 1.6-.9 3-2 4.1-3.4 1.1-1.4 1.9-3 2.4-4.9.5-1.9.8-3.8.8-5.7 0-2-.3-3.9-.8-5.7-.5-1.8-1.3-3.4-2.4-4.8-1.1-1.4-2.4-2.5-4.1-3.3-1.6-.8-3.5-1.3-5.7-1.3s-4.1.4-5.7 1.2c-1.7.8-3 1.9-4.2 3.3-1.1 1.4-2 3-2.5 4.8-.6 1.8-.8 3.8-.8 5.8s.3 4 .8 5.8c.6 1.8 1.4 3.5 2.5 4.9 1.1 1.4 2.5 2.6 4.2 3.4 1.6.8 3.5 1.2 5.7 1.2z" id="path102" fill="#e7ad00"/><path id="path104" transform="matrix(.57156 0 0 .57156 -391.317 -266.423)" d="M906.672 468.758l-13.822 70.334h20.996c1.75-4.55 4.549-7.699 8.398-9.274a32.758 32.758 0 0 1 12.422-2.449c4.2 0 7.872.876 11.021 2.276 3.15 1.574 5.775 3.497 7.7 5.947 1.924 2.45 3.323 5.25 4.373 8.574.875 3.15 1.4 6.647 1.4 10.146 0 3.85-.35 7.525-1.224 11.024-.7 3.5-2.101 6.473-4.026 9.098-1.924 2.624-4.374 4.723-7.523 6.123-2.975 1.574-6.824 2.275-11.198 2.275-6.998 0-12.422-1.925-16.62-5.6-4.2-3.674-6.473-9.097-7.173-16.095H890.4c.35 6.473 1.574 12.072 4.024 16.97 2.274 4.9 5.599 8.924 9.623 12.248 4.199 3.325 8.748 5.95 14.172 7.524 5.424 1.575 11.197 2.45 17.496 2.45 7.873 0 14.696-1.402 20.295-4.376 5.773-2.8 10.324-6.472 13.998-11.021 3.499-4.374 6.298-9.45 7.873-14.873 1.575-5.424 2.45-10.672 2.45-15.92 0-6.124-.876-11.898-2.626-17.147-1.75-5.424-4.374-9.973-7.873-13.822-3.5-3.85-7.698-6.998-12.771-9.098-5.074-2.1-10.673-3.148-17.147-3.148-4.199 0-8.573.874-12.947 2.45-4.374 1.749-8.048 4.197-10.848 7.347l-.35-.35 6.475-32.719h51.088v-18.894z" fill="#e7ad00" stroke-width="1.75"/><path id="path106" transform="matrix(.57156 0 0 .57156 -391.317 -266.423)" d="M1000.975 466.133v131.57h17.496v-60.361h60.537v-14.697h-60.537V480.83h68.935v-14.697z" fill="#fff" stroke-width="1.75"/></g><path id="rect4670" opacity=".058" fill-opacity="0" stroke-width=".218" d="M16.031 95.794h472v86h-472z"/></g><style id="style25">.st0{fill:#fff}</style><style id="style86">.st0{fill:#fff}.st1{fill:#e8ad00}</style></svg>